<?xml version="1.0" encoding="iso-8859-1"?>
<!-- Generator: Adobe Illustrator 16.0.0, SVG Export Plug-In . SVG Version: 6.00 Build 0)  -->
<!DOCTYPE svg PUBLIC "-//W3C//DTD SVG 1.1//EN" "http://www.w3.org/Graphics/SVG/1.1/DTD/svg11.dtd">
<svg version="1.1" id="Capa_1" xmlns="http://www.w3.org/2000/svg" xmlns:xlink="http://www.w3.org/1999/xlink" x="0px" y="0px"
	 width="45px" height="45px" viewBox="0 0 45 45" style="enable-background:new 0 0 45 45;" xml:space="preserve">
<g>
	<path d="M15.331,34.699l-4.772,4.771L0,28.914l4.773-4.772L15.331,34.699z M45,19.51L33.546,30.965h-16.13l-2.831,1.693
		L6.66,24.651c0,0,5.21-5.143,7.482-5.143c0.32,0,0.674,0,1.051,0c-0.764-0.406-1.287-1.2-1.287-2.124h8.803
		c-4.137-2.334-6.938-6.765-6.938-11.855h27.225c0,0.587-0.051,1.159-0.121,1.728c1.227,0.718,2.062,2.037,2.062,3.56
		c0,2.28-1.854,4.139-4.138,4.139c-0.483,0-0.942-0.102-1.378-0.255c-0.972,1.063-2.102,1.975-3.363,2.687h8.808
		c0,0.85-0.443,1.594-1.106,2.024C44.443,19.453,45,19.51,45,19.51z M40.396,13.504c0.133,0.021,0.266,0.041,0.4,0.041
		c1.505,0,2.729-1.225,2.729-2.729c0-0.816-0.367-1.543-0.938-2.044C42.167,10.506,41.415,12.104,40.396,13.504z M40.62,19.801
		h-7.279c-0.418,0.897-1.942,3.605-5.188,3.605c-1.907,0-6.688,0-6.688,0s2.518,2.338,3.587,2.338c2.283,0,7.532,0,7.532,0
		S37.952,21.178,40.62,19.801z"/>
</g>
<g>
</g>
<g>
</g>
<g>
</g>
<g>
</g>
<g>
</g>
<g>
</g>
<g>
</g>
<g>
</g>
<g>
</g>
<g>
</g>
<g>
</g>
<g>
</g>
<g>
</g>
<g>
</g>
<g>
</g>
</svg>
