<?xml version="1.0" encoding="iso-8859-1"?>
<!-- Generator: Adobe Illustrator 16.0.0, SVG Export Plug-In . SVG Version: 6.00 Build 0)  -->
<!DOCTYPE svg PUBLIC "-//W3C//DTD SVG 1.1//EN" "http://www.w3.org/Graphics/SVG/1.1/DTD/svg11.dtd">
<svg version="1.1" id="Capa_1" xmlns="http://www.w3.org/2000/svg" xmlns:xlink="http://www.w3.org/1999/xlink" x="0px" y="0px"
	 width="45px" height="45px" viewBox="0 0 45 45" style="enable-background:new 0 0 45 45;" xml:space="preserve">
<g>
	<path d="M4.21,27.869l9.313,9.312l-4.211,4.21L0,32.079L4.21,27.869z M45,22.428c0,1.177-0.953,2.131-2.129,2.131h-3.955
		l-9.33,9.329H15.359l-2.494,1.494L5.874,28.32c0,0,2.502-2.467,4.619-3.761H7.77c-1.178,0-2.129-0.954-2.129-2.13h4.047
		C10.5,16.076,19.016,9.847,27.281,9.665c1.507-1.845,3.964-2.795,6.439-2.217c0.98,0.229,1.846,0.688,2.576,1.285l3.28-2.756
		c-0.019-0.022-0.04-0.043-0.058-0.067c-0.438-0.706-0.22-1.636,0.485-2.073c0.705-0.439,1.632-0.224,2.069,0.482
		c0.244,0.396,0.277,0.856,0.143,1.266c0.426,0.061,0.825,0.296,1.068,0.689c0.438,0.706,0.219,1.634-0.486,2.071
		c-0.705,0.439-1.631,0.223-2.068-0.482c-0.017-0.025-0.021-0.054-0.037-0.08l-2.959,2.556c0.759,1.227,1.074,2.708,0.875,4.219
		c1.688,2.159,2.646,4.883,2.82,7.872L45,22.428L45,22.428z M34.932,24.559h-5.798c-0.595,1.014-1.928,2.661-4.304,2.661
		c-1.684,0-5.896,0-5.896,0s2.219,2.063,3.162,2.063c2.015,0,6.646,0,6.646,0S32.445,26.128,34.932,24.559z"/>
</g>
<g>
</g>
<g>
</g>
<g>
</g>
<g>
</g>
<g>
</g>
<g>
</g>
<g>
</g>
<g>
</g>
<g>
</g>
<g>
</g>
<g>
</g>
<g>
</g>
<g>
</g>
<g>
</g>
<g>
</g>
</svg>
